<svg width="13" height="14" viewBox="0 0 13 14" fill="none" xmlns="http://www.w3.org/2000/svg">
<path d="M7.22509 1.3249C8.41735 1.3249 9.52739 1.79084 10.3771 2.6268C11.213 3.46275 11.6789 4.6002 11.6789 5.76506C11.6789 6.10766 11.953 6.38174 12.2956 6.38174C12.6382 6.38174 12.9123 6.10766 12.9123 5.76506C12.926 4.2713 12.323 2.80495 11.2541 1.73602C10.1715 0.694507 8.74625 0.0915222 7.22509 0.0915222C6.88248 0.0915222 6.6084 0.365606 6.6084 0.708211C6.6084 1.05082 6.88248 1.3249 7.22509 1.3249Z" fill="black"/>
<path d="M7.22509 3.69572C7.78696 3.69572 8.30772 3.91499 8.70514 4.31241C9.10256 4.70983 9.32183 5.23059 9.32183 5.79246C9.32183 6.13506 9.59591 6.40915 9.93852 6.40915C10.2811 6.40915 10.5552 6.13506 10.5552 5.79246C10.5552 4.90169 10.2126 4.06573 9.58221 3.43534C8.95181 2.80495 8.11586 2.46234 7.22509 2.46234C6.88248 2.46234 6.6084 2.73643 6.6084 3.07903C6.6084 3.42163 6.88248 3.69572 7.22509 3.69572Z" fill="black"/>
<path d="M12.5279 9.45148L9.86931 8.08106C9.4993 7.8892 9.03336 7.98513 8.77298 8.31403L7.79998 9.56111C6.85439 9.05406 6.12807 8.56071 5.29212 7.72475C4.40134 6.83398 3.9217 6.09395 3.42835 5.17577L4.66172 4.21648C4.99062 3.9561 5.10026 3.49016 4.89469 3.12014L3.53798 0.475236C3.2913 0.00929383 2.70202 -0.141452 2.27719 0.146336L0.577874 1.27008C0.194157 1.53046 -0.02511 1.9827 0.00229833 2.44864C0.0297067 2.92829 0.0982276 3.53127 0.207861 3.9561C0.701212 5.84728 1.87977 7.80698 3.53798 9.46519C5.19619 11.1371 7.15589 12.3157 9.04706 12.809C9.47189 12.9186 10.0749 12.9735 10.5682 13.0146C11.0479 13.042 11.5001 12.809 11.7605 12.4116L12.8568 10.6986C13.1446 10.26 12.9802 9.68445 12.5279 9.45148Z" fill="black"/>
</svg>
