<svg width="11" height="15" viewBox="0 0 11 15" fill="none" xmlns="http://www.w3.org/2000/svg">
<path d="M5.5016 1.50064C7.67878 1.50064 9.45137 3.22252 9.45995 5.34207C9.45929 5.35772 9.45885 5.37337 9.45885 5.38902L9.45841 5.41754L9.45907 5.44626C9.47139 5.91103 9.45005 9.835 5.50028 13.0985C1.41101 9.71752 1.53334 5.61498 1.54082 5.4394L1.54302 5.39867V5.35772C1.54302 3.23088 3.31869 1.50064 5.5016 1.50064ZM5.50468 7.96434C6.96794 7.96434 8.15839 6.80434 8.15839 5.37852C8.15839 3.95269 6.96794 2.7927 5.50468 2.7927C4.04141 2.7927 2.85096 3.95269 2.85096 5.37852C2.85074 6.80434 4.04141 7.96434 5.50468 7.96434ZM5.5016 0C2.46462 0 0.00297113 2.39867 0.00297113 5.35772C0.00297113 5.35772 -0.310318 10.9506 5.4972 14.9968L5.49852 15C5.49896 14.9996 5.49962 14.9991 5.50006 14.9989C5.5005 14.9991 5.50116 14.9996 5.5016 15L5.50292 14.9968C10.9998 11.1671 11.0132 5.95477 10.9987 5.40789C10.9989 5.39117 11 5.37466 11 5.35794C11 2.39867 8.53835 0 5.5016 0ZM5.50468 6.4637C4.88976 6.4637 4.391 5.9777 4.391 5.37852C4.391 4.77933 4.88976 4.29334 5.50468 4.29334C6.11981 4.29334 6.61835 4.77933 6.61835 5.37852C6.61835 5.9777 6.11959 6.4637 5.50468 6.4637Z" fill="black"/>
</svg>
