<svg width="40" height="30" viewBox="0 0 40 30" fill="none" xmlns="http://www.w3.org/2000/svg">
<path d="M27.779 6.93391H35.6663C36.2354 6.93391 36.799 7.04601 37.3247 7.26379C37.8505 7.48158 38.3283 7.8008 38.7307 8.20322C39.1331 8.60564 39.4523 9.08338 39.6701 9.60917C39.8879 10.135 40 10.6985 40 11.2676V23.0553C40 23.8598 39.6804 24.6314 39.1115 25.2003C38.5426 25.7692 37.771 26.0888 36.9664 26.0888H36.273C36.0695 27.1115 35.5178 28.0319 34.7117 28.6933C33.9057 29.3547 32.8953 29.7162 31.8527 29.7162C30.81 29.7162 29.7996 29.3547 28.9936 28.6933C28.1875 28.0319 27.6358 27.1115 27.4323 26.0888H12.8277C12.6242 27.1115 12.0725 28.0319 11.2665 28.6933C10.4604 29.3547 9.45003 29.7162 8.40737 29.7162C7.3647 29.7162 6.35429 29.3547 5.54827 28.6933C4.74226 28.0319 4.1905 27.1115 3.987 26.0888H3.03359C2.22903 26.0888 1.45742 25.7692 0.888515 25.2003C0.319607 24.6314 0 23.8598 0 23.0553V18.5049C0 17.7003 0.319607 16.9287 0.888515 16.3598C1.45742 15.7909 2.22903 15.4713 3.03359 15.4713H3.77031V8.53738C3.77031 8.30751 3.86163 8.08705 4.02417 7.9245C4.18672 7.76196 4.40718 7.67064 4.63705 7.67064H7.54063V0.866739C7.54063 0.636866 7.63195 0.416407 7.79449 0.253862C7.95704 0.0913166 8.17749 0 8.40737 0H16.208C16.4379 0 16.6583 0.0913166 16.8209 0.253862C16.9834 0.416407 17.0748 0.636866 17.0748 0.866739V7.71398H20.1517C20.3816 7.71398 20.602 7.80529 20.7646 7.96784C20.9271 8.13038 21.0184 8.35084 21.0184 8.58072V15.5146H22.5785V12.1343C22.5785 10.7551 23.1264 9.43235 24.1017 8.45708C25.077 7.48181 26.3997 6.93391 27.779 6.93391ZM35.7096 8.66739H33.3694V12.7411C33.3694 13.0859 33.5064 13.4166 33.7502 13.6604C33.9941 13.9042 34.3247 14.0412 34.6696 14.0412H38.2665V11.2676C38.2665 10.578 37.9926 9.91661 37.5049 9.42898C37.0173 8.94134 36.3559 8.66739 35.6663 8.66739H35.7096ZM31.8527 27.9957C32.4012 27.9957 32.9375 27.833 33.3936 27.5282C33.8497 27.2235 34.2052 26.7903 34.4151 26.2835C34.625 25.7767 34.6799 25.219 34.5729 24.681C34.4659 24.143 34.2018 23.6488 33.8139 23.2609C33.426 22.873 32.9318 22.6088 32.3937 22.5018C31.8557 22.3948 31.2981 22.4497 30.7913 22.6597C30.2845 22.8696 29.8513 23.2251 29.5465 23.6812C29.2418 24.1373 29.0791 24.6735 29.0791 25.2221C29.0791 25.9577 29.3713 26.6632 29.8914 27.1833C30.4116 27.7035 31.1171 27.9957 31.8527 27.9957ZM31.8527 20.7151C32.8971 20.7157 33.909 21.079 34.7153 21.743C35.5215 22.407 36.0722 23.3304 36.273 24.3554H36.9664C37.3112 24.3554 37.6419 24.2184 37.8857 23.9746C38.1295 23.7308 38.2665 23.4001 38.2665 23.0553V21.9718H36.403V20.2384H38.2665V19.805H36.403V18.0715H38.2665V15.7746H34.6262C33.8217 15.7746 33.0501 15.455 32.4811 14.8861C31.9122 14.3172 31.5926 13.5456 31.5926 12.7411V8.66739H27.7356C26.8161 8.66739 25.9343 9.03266 25.2841 9.68284C24.634 10.333 24.2687 11.2149 24.2687 12.1343V24.3554H27.4323C27.6331 23.3304 28.1838 22.407 28.99 21.743C29.7963 21.079 30.8082 20.7157 31.8527 20.7151ZM8.40737 27.9957C8.95592 27.9957 9.49216 27.833 9.94827 27.5282C10.4044 27.2235 10.7599 26.7903 10.9698 26.2835C11.1797 25.7767 11.2347 25.219 11.1276 24.681C11.0206 24.143 10.7565 23.6488 10.3686 23.2609C9.98068 22.873 9.48648 22.6088 8.94846 22.5018C8.41044 22.3948 7.85277 22.4497 7.34597 22.6597C6.83916 22.8696 6.40599 23.2251 6.10123 23.6812C5.79647 24.1373 5.6338 24.6735 5.6338 25.2221C5.6338 25.5863 5.70554 25.947 5.84493 26.2835C5.98431 26.62 6.18861 26.9258 6.44616 27.1833C6.70371 27.4409 7.00946 27.6452 7.34597 27.7845C7.68247 27.9239 8.04314 27.9957 8.40737 27.9957ZM5.46046 15.4713H11.5276V9.40412H5.46046V15.4713ZM15.3413 1.73348H9.27411V7.71398H15.3413V1.73348ZM19.2849 9.44745H13.3044V15.5146H19.2849V9.44745ZM3.03359 17.2481C2.68878 17.2481 2.35809 17.3851 2.11427 17.6289C1.87045 17.8727 1.73348 18.2034 1.73348 18.5482V23.0553C1.73348 23.4001 1.87045 23.7308 2.11427 23.9746C2.35809 24.2184 2.68878 24.3554 3.03359 24.3554H3.987C4.1905 23.3328 4.74226 22.4123 5.54827 21.7509C6.35429 21.0895 7.3647 20.728 8.40737 20.728C9.45003 20.728 10.4604 21.0895 11.2665 21.7509C12.0725 22.4123 12.6242 23.3328 12.8277 24.3554H22.5785V17.2048L3.03359 17.2481Z" fill="black"/>
</svg>
