<svg width="22" height="23" viewBox="0 0 22 23" fill="none" xmlns="http://www.w3.org/2000/svg">
<path d="M12.846 23C12.6817 23 12.517 22.9555 12.3712 22.8669L8.67906 20.623C8.40104 20.4543 8.23084 20.1495 8.23084 19.8211V12.9249L0.171688 1.47761C-0.029163 1.19263 -0.0557469 0.817902 0.102276 0.506748C0.260298 0.195593 0.577082 0 0.923033 0H21.0768C21.4228 0 21.7392 0.195593 21.8976 0.506748C22.056 0.817902 22.029 1.19263 21.8282 1.47761L13.769 12.9249V22.065C13.769 22.4016 13.5903 22.7124 13.3005 22.8788C13.1598 22.9596 13.0029 23 12.846 23ZM10.0769 19.292L11.923 20.4139V12.6257C11.923 12.4308 11.9828 12.2412 12.0946 12.083L19.2847 1.86992H2.71519L9.90558 12.083C10.0175 12.2412 10.0773 12.4312 10.0773 12.6257V19.292H10.0769Z" fill="black"/>
</svg>
