<svg width="36" height="40" viewBox="0 0 36 40" fill="none" xmlns="http://www.w3.org/2000/svg">
<path d="M0.0473333 30.9009C0.0641867 30.939 0.0847102 30.9754 0.108613 31.0095C0.128993 31.0475 0.153148 31.0833 0.180713 31.1165C0.214468 31.1492 0.251626 31.1782 0.291553 31.203C0.315598 31.225 0.341325 31.245 0.3685 31.263L17.7018 39.9297C17.7077 39.9326 17.7146 39.9313 17.7205 39.9341C17.8965 40.022 18.1035 40.022 18.2795 39.9341C18.2854 39.9313 18.2923 39.9326 18.2982 39.9297L35.6315 31.263C35.6587 31.245 35.6844 31.225 35.7085 31.203C35.7484 31.1782 35.7855 31.1492 35.8193 31.1165C35.8694 31.0483 35.914 30.9762 35.9527 30.9009C35.9674 30.8549 35.977 30.8074 35.9813 30.7592C35.9898 30.7289 35.9961 30.698 36 30.6667V9.33333C35.9961 9.30204 35.9899 9.2711 35.9813 9.24076C35.977 9.19262 35.9674 9.14511 35.9527 9.09908C35.914 9.02381 35.8694 8.95174 35.8193 8.88355C35.7855 8.85084 35.7484 8.82184 35.7085 8.79704C35.6844 8.77505 35.6587 8.75496 35.6315 8.73698L18.2982 0.0703108C18.2923 0.0673841 18.2854 0.0686841 18.2795 0.0659175C18.1035 -0.0219725 17.8965 -0.0219725 17.7205 0.0659175C17.7146 0.0686841 17.7077 0.0673841 17.7018 0.0703108L0.368507 8.73698C0.341332 8.75496 0.315605 8.77505 0.29156 8.79704C0.251633 8.82184 0.214474 8.85084 0.18072 8.88355C0.153155 8.91668 0.128999 8.9525 0.10862 8.99048C0.0847169 9.0246 0.0641934 9.06098 0.04734 9.09908C0.0326157 9.14511 0.0230219 9.19262 0.0187333 9.24076C0.0101667 9.2711 0.00390439 9.30204 0 9.33333V30.6667C0.00390001 30.6979 0.0101578 30.7289 0.01872 30.7592C0.0230102 30.8074 0.0326062 30.8549 0.0473333 30.9009ZM18 19.4121L22.1758 21.5L18.3333 23.4212L14.1576 21.3333L18 19.4121ZM18 35.2546L13.4909 33L18.3333 30.5788L22.8425 32.8333L18 35.2546ZM16.8425 29.8333L12 32.2546L7.82422 30.1667L12.6667 27.7454L16.8425 29.8333ZM14.1576 27L18.3333 24.9121L22.5091 27L18.3333 29.0879L14.1576 27ZM24.3333 32.0879L19.8242 29.8333L24 27.7454L28.5091 30L24.3333 32.0879ZM30 29.2546L25.4909 27L29.3333 25.0788L33.8425 27.3333L30 29.2546ZM24 26.2546L19.8242 24.1667L23.6667 22.2454L27.8425 24.3333L24 26.2546ZM12.6667 22.0788L16.8425 24.1667L12.6667 26.2546L8.49089 24.1667L12.6667 22.0788ZM7 24.9121L11.1758 27L6.33334 29.4212L2.15755 27.3333L7 24.9121ZM1.33333 28.4121L17.3333 36.4121V38.2546L1.33333 30.2546V28.4121ZM18.6667 36.4121L34.6667 28.4121V30.2546L18.6667 38.2546V36.4121ZM34.6667 26.2546L18.6667 18.2546V1.74543L34.6667 9.74543V26.2546ZM17.3333 18.2546L1.33333 26.2546V9.74543L17.3333 1.74543V18.2546Z" fill="black"/>
</svg>
