<svg width="20" height="21" viewBox="0 0 20 21" fill="none" xmlns="http://www.w3.org/2000/svg">
<path d="M0 0V9.99313C0.000136424 10.2585 0.105645 10.513 0.29333 10.7006C0.481016 10.8882 0.735514 10.9935 1.00087 10.9935C1.26623 10.9935 1.52073 10.8882 1.70841 10.7006C1.8961 10.513 2.00161 10.2585 2.00174 9.99313V1.99983H18.004V9.99313C17.9916 10.1314 18.0081 10.2709 18.0525 10.4024C18.0969 10.534 18.1682 10.6548 18.2619 10.7573C18.3556 10.8598 18.4697 10.9417 18.5967 10.9977C18.7238 11.0537 18.8611 11.0827 19 11.0827C19.1389 11.0827 19.2762 11.0537 19.4033 10.9977C19.5303 10.9417 19.6444 10.8598 19.7381 10.7573C19.8318 10.6548 19.9031 10.534 19.9475 10.4024C19.9919 10.2709 20.0084 10.1314 19.996 9.99313V0H0ZM9.99898 5.99555C9.96567 5.99641 9.93244 5.99887 9.89938 6.00305C9.76726 6.01639 9.63912 6.05591 9.52243 6.1193C9.40575 6.1827 9.30286 6.26875 9.21976 6.37234L5.22017 11.3756C5.05718 11.5833 4.98287 11.847 5.01342 12.1092C5.04397 12.3714 5.17691 12.611 5.38328 12.7756C5.58965 12.9402 5.85272 13.0166 6.11517 12.9881C6.37762 12.9597 6.61819 12.8286 6.78446 12.6236L8.99909 9.85439V19.0018C8.99614 19.135 9.01983 19.2674 9.06876 19.3913C9.11768 19.5152 9.19086 19.6281 9.284 19.7233C9.37714 19.8185 9.48837 19.8941 9.61115 19.9458C9.73392 19.9974 9.86578 20.0241 9.99898 20.0241C10.1322 20.0241 10.264 19.9974 10.3868 19.9458C10.5096 19.8941 10.6208 19.8185 10.714 19.7233C10.8071 19.6281 10.8803 19.5152 10.9292 19.3913C10.9781 19.2674 11.0018 19.135 10.9989 19.0018V9.84655L13.2213 12.6236C13.2994 12.7365 13.3999 12.8322 13.5165 12.9045C13.6332 12.9769 13.7635 13.0245 13.8993 13.0443C14.0352 13.0641 14.1736 13.0558 14.3061 13.0197C14.4386 12.9837 14.5622 12.9209 14.6693 12.835C14.7764 12.7491 14.8647 12.6421 14.9286 12.5206C14.9926 12.3991 15.0308 12.2658 15.041 12.1289C15.0512 11.992 15.0331 11.8545 14.9878 11.7249C14.9425 11.5953 14.871 11.4764 14.7778 11.3756L10.7841 6.37234C10.6899 6.25475 10.5704 6.15989 10.4344 6.09497C10.2985 6.03005 10.1496 5.99672 9.99898 5.9974L9.99898 5.99555Z" fill="black"/>
</svg>
