<svg width="20" height="20" viewBox="0 0 20 20" fill="none" xmlns="http://www.w3.org/2000/svg">
<path fill-rule="evenodd" clip-rule="evenodd" d="M10.0001 15.1852C12.8638 15.1852 15.1853 12.8637 15.1853 10C15.1853 7.13631 12.8638 4.81482 10.0001 4.81482C7.13643 4.81482 4.81494 7.13631 4.81494 10C4.81494 12.8637 7.13643 15.1852 10.0001 15.1852ZM6.98128 9.99964C6.98128 8.36038 8.3161 7.0263 9.95536 7.0263C11.595 7.0263 12.9291 8.36075 12.9291 9.99964C12.9291 11.6396 11.5954 12.9741 9.95536 12.9741C8.3161 12.9741 6.98128 11.6396 6.98128 9.99964Z" fill="#A98567"/>
<path d="M16.6668 4.62961C16.6668 5.34553 16.0864 5.92591 15.3705 5.92591C14.6546 5.92591 14.0742 5.34553 14.0742 4.62961C14.0742 3.91368 14.6546 3.33331 15.3705 3.33331C16.0864 3.33331 16.6668 3.91368 16.6668 4.62961Z" fill="#A98567"/>
<path fill-rule="evenodd" clip-rule="evenodd" d="M5.18518 0C2.32149 0 0 2.32149 0 5.18519V14.8148C0 17.6785 2.32149 20 5.18519 20H14.8148C17.6785 20 20 17.6785 20 14.8148V5.18518C20 2.32149 17.6785 0 14.8148 0H5.18518ZM4.81481 2.22222C3.38297 2.22222 2.22222 3.38297 2.22222 4.81482V15.1852C2.22222 16.617 3.38297 17.7778 4.81482 17.7778H15.1852C16.617 17.7778 17.7778 16.617 17.7778 15.1852V4.81481C17.7778 3.38297 16.617 2.22222 15.1852 2.22222H4.81481Z" fill="#A98567"/>
</svg>
