<svg width="40" height="40" viewBox="0 0 40 40" fill="none" xmlns="http://www.w3.org/2000/svg">
<path d="M38.2979 40H0.851064C0.381021 40 0 39.6189 0 39.1489V10.2128C0 9.74272 0.381021 9.36169 0.851064 9.36169H11.0638C11.5338 9.36169 11.9149 9.74272 11.9149 10.2128V15.3191H17.8723C18.3423 15.3191 18.7234 15.7002 18.7234 16.1702V21.2766H24.6809C25.1508 21.2766 25.5319 21.6577 25.5319 22.1277V26.383H31.4894C31.9593 26.383 32.3404 26.7641 32.3404 27.234V31.4894H38.2979C38.7678 31.4894 39.1489 31.8705 39.1489 32.3404V39.1489C39.1489 39.6189 38.7678 40 38.2979 40ZM1.70213 38.2979H37.4468V33.1915H31.4894C31.0194 33.1915 30.6383 32.8104 30.6383 32.3404V28.0851H24.6809C24.2109 28.0851 23.8298 27.704 23.8298 27.234V22.9787H17.8723C17.4023 22.9787 17.0213 22.5976 17.0213 22.1277V17.0213H11.0638C10.5938 17.0213 10.2128 16.6402 10.2128 16.1702V11.0638H1.70213V38.2979Z" fill="black"/>
<path d="M38.2979 21.2766H36.5958C36.4086 21.2766 36.2265 21.2148 36.078 21.101L10.7751 1.70213H4.25536C3.78532 1.70213 3.4043 1.32111 3.4043 0.851064C3.4043 0.381021 3.78532 0 4.25536 0H11.0639C11.251 0 11.4331 0.0617872 11.5817 0.17566L36.8846 19.5745H38.2979C38.7679 19.5745 39.149 19.9556 39.149 20.4255C39.149 20.8955 38.7679 21.2766 38.2979 21.2766Z" fill="black"/>
<path d="M31.4897 28.0851C31.0198 28.0851 30.6387 27.704 30.6387 27.234V17.0212C30.6387 16.5512 31.0198 16.1702 31.4897 16.1702C31.9597 16.1702 32.3408 16.5512 32.3408 17.0212V27.234C32.3408 27.704 31.9597 28.0851 31.4897 28.0851Z" fill="black"/>
<path d="M24.6811 22.9787C24.2112 22.9787 23.8301 22.5976 23.8301 22.1277V11.9149C23.8301 11.4449 24.2112 11.0638 24.6811 11.0638C25.1511 11.0638 25.5322 11.4449 25.5322 11.9149V22.1277C25.5322 22.5976 25.1511 22.9787 24.6811 22.9787Z" fill="black"/>
<path d="M17.8725 17.0212C17.4025 17.0212 17.0215 16.6402 17.0215 16.1702V6.80846C17.0215 6.33842 17.4025 5.9574 17.8725 5.9574C18.3425 5.9574 18.7236 6.33842 18.7236 6.80846V16.1702C18.7236 16.6402 18.3425 17.0212 17.8725 17.0212Z" fill="black"/>
<path d="M11.064 11.0638C10.5939 11.0638 10.2129 10.6828 10.2129 10.2128V0.851064C10.2129 0.381021 10.5939 0 11.064 0C11.5339 0 11.915 0.381021 11.915 0.851064V10.2128C11.915 10.6828 11.5339 11.0638 11.064 11.0638Z" fill="black"/>
<path d="M24.6809 33.1915H0.851064C0.381021 33.1915 0 32.8104 0 32.3404C0 31.8705 0.381021 31.4894 0.851064 31.4894H24.6809C25.1508 31.4894 25.5319 31.8705 25.5319 32.3404C25.5319 32.8104 25.1508 33.1915 24.6809 33.1915Z" fill="black"/>
</svg>
