<svg width="16" height="12" viewBox="0 0 16 12" fill="none" xmlns="http://www.w3.org/2000/svg">
<path d="M1.71429 0C0.774457 0 0 0.774476 0 1.71429V9.33333C0 10.2731 0.774457 11.0476 1.71429 11.0476H14.2857C15.2255 11.0476 16 10.2731 16 9.33333V1.71429C16 0.774476 15.2255 0 14.2857 0H1.71429ZM1.83928 1.14286H14.1667L8.3512 6.33333C8.12951 6.53128 7.88293 6.53149 7.66072 6.33333L1.83928 1.14286ZM1.14286 2.05356L5.05952 5.54762L1.14286 9.30952V2.05356ZM14.8571 2.05356V9.30358L10.9524 5.54168L14.8571 2.05356ZM10.0952 6.30952L13.8274 9.90476H2.17261L5.91667 6.31546L6.89882 7.19048C7.52312 7.74712 8.48872 7.74802 9.1131 7.19048L10.0952 6.30952Z" fill="black"/>
</svg>
