<svg width="14" height="19" viewBox="0 0 14 19" fill="none" xmlns="http://www.w3.org/2000/svg">
    <path
        d="M11.4 0H1.9C0.855 0 0 0.855 0 1.9V17.1C0 18.145 0.855 19 1.9 19H11.4C12.445 19 13.3 18.145 13.3 17.1V1.9C13.3 0.855 12.445 0 11.4 0ZM11.4 1.9V11.4H1.9V1.9H11.4ZM1.9 17.1V13.3H11.4V17.1H1.9Z"
        fill="#FFF4DE" />
    <path
        d="M6.6502 16.15C7.17487 16.15 7.6002 15.7247 7.6002 15.2C7.6002 14.6753 7.17487 14.25 6.6502 14.25C6.12552 14.25 5.7002 14.6753 5.7002 15.2C5.7002 15.7247 6.12552 16.15 6.6502 16.15Z"
        fill="#FFF4DE" />
    <path d="M8.55 2.84961H4.75V4.74961H8.55V2.84961Z" fill="#FFF4DE" />
</svg>