<svg width="40" height="40" viewBox="0 0 40 40" fill="none" xmlns="http://www.w3.org/2000/svg">
<path d="M10.7124 23.2477H13.1392V16.5964C12.8201 16.6693 12.5125 16.765 12.2163 16.8835C11.9246 17.002 11.658 17.1455 11.4165 17.3141L10.3501 15.7897C10.742 15.5436 11.1408 15.3363 11.5464 15.1677C11.9565 14.9945 12.369 14.8578 12.7837 14.7575C13.203 14.6527 13.6222 14.5775 14.0415 14.5319C14.4653 14.4863 14.8869 14.4636 15.3062 14.4636L15.2993 14.4772H15.3062V23.2477H17.6235V25.1481H10.7124V23.2477Z" fill="black"/>
<path d="M19.0796 20.9645L25.3276 14.4636H27.4946V20.9645H29.7983V22.8649H27.4946V25.1481H25.3276V22.8649H19.0659L19.0796 20.9645ZM25.3276 20.9645V17.2048L21.6772 20.9645H25.3276Z" fill="black"/>
<path fill-rule="evenodd" clip-rule="evenodd" d="M13.9614 8.06318C3.91613 11.7161 2.22931 29.4738 17.4247 34.2223L16.8281 36.1312C-0.0376997 30.8608 1.2813 10.5461 13.2779 6.18359L13.9614 8.06318ZM22.8216 34.2281C37.0331 29.4909 36.917 13.5726 27.1502 7.9916L28.1425 6.25512C39.4158 12.697 39.2997 30.8436 23.454 36.1254L22.8216 34.2281Z" fill="black"/>
<circle cx="20.0918" cy="35.1484" r="1" fill="black"/>
<path fill-rule="evenodd" clip-rule="evenodd" d="M38 20C38 29.9411 29.9411 38 20 38C10.0589 38 2 29.9411 2 20C2 10.0589 10.0589 2 20 2C29.9411 2 38 10.0589 38 20ZM40 20C40 31.0457 31.0457 40 20 40C8.9543 40 0 31.0457 0 20C0 8.9543 8.9543 0 20 0C31.0457 0 40 8.9543 40 20Z" fill="black"/>
</svg>
