<svg width="57" height="57" viewBox="0 0 57 57" fill="none" xmlns="http://www.w3.org/2000/svg">
<path d="M33.3098 46.1772H14.0693C13.6044 46.1772 13.2275 45.8003 13.2275 45.3354V34.5126C13.2275 34.0477 13.6044 33.6709 14.0693 33.6709H33.3098C33.7747 33.6709 34.1516 34.0477 34.1516 34.5126V45.3354C34.1516 45.8003 33.7747 46.1772 33.3098 46.1772ZM14.9111 44.4936H32.468V35.3544H14.9111V44.4936Z" fill="black"/>
<path d="M21.2847 57H16.4746C16.0097 57 15.6328 56.6231 15.6328 56.1582V45.3354C15.6328 44.8705 16.0097 44.4937 16.4746 44.4937H21.2847C21.7496 44.4937 22.1265 44.8705 22.1265 45.3354V56.1582C22.1265 56.6231 21.7496 57 21.2847 57ZM17.3164 55.3164H20.4429V46.1772H17.3164V55.3164Z" fill="black"/>
<path d="M56.1582 57H0.841772C0.376873 57 0 56.6231 0 56.1582C0 55.6933 0.376873 55.3164 0.841772 55.3164H56.1582C56.6231 55.3164 57 55.6933 57 56.1582C57 56.6231 56.6231 57 56.1582 57Z" fill="black"/>
<path d="M51.3479 26.9367H38.1201C37.6552 26.9367 37.2783 26.5598 37.2783 26.0949V12.8671C37.2783 12.4022 37.6552 12.0253 38.1201 12.0253H51.3479C51.8128 12.0253 52.1897 12.4022 52.1897 12.8671V26.0949C52.1897 26.5598 51.8128 26.9367 51.3479 26.9367ZM38.9619 25.2531H50.5062V13.7088H38.9619V25.2531Z" fill="black"/>
<path d="M51.3479 41.3671H38.1201C37.6552 41.3671 37.2783 40.9902 37.2783 40.5253V26.0949C37.2783 25.63 37.6552 25.2531 38.1201 25.2531H51.3479C51.8128 25.2531 52.1897 25.63 52.1897 26.0949V40.5253C52.1897 40.9902 51.8128 41.3671 51.3479 41.3671ZM38.9619 39.6835H50.5062V26.9367H38.9619V39.6835Z" fill="black"/>
<path d="M33.3098 35.3544H20.082C19.6171 35.3544 19.2402 34.9775 19.2402 34.5126V0.841772C19.2402 0.376873 19.6171 0 20.082 0H39.3225C39.7874 0 40.1643 0.376873 40.1643 0.841772V8.05696C40.1643 8.52186 39.7874 8.89873 39.3225 8.89873H34.1516V34.5126C34.1516 34.9775 33.7747 35.3544 33.3098 35.3544ZM20.9238 33.6709H32.4681V8.05696C32.4681 7.59206 32.8449 7.21519 33.3098 7.21519H38.4807V1.68354H20.9238V33.6709Z" fill="black"/>
<path d="M51.3479 37.7595H38.1201C37.6552 37.7595 37.2783 37.3826 37.2783 36.9177C37.2783 36.4528 37.6552 36.0759 38.1201 36.0759H51.3479C51.8128 36.0759 52.1897 36.4528 52.1897 36.9177C52.1897 37.3826 51.8128 37.7595 51.3479 37.7595Z" fill="black"/>
<path d="M51.3479 34.1519H38.1201C37.6552 34.1519 37.2783 33.775 37.2783 33.3101C37.2783 32.8452 37.6552 32.4684 38.1201 32.4684H51.3479C51.8128 32.4684 52.1897 32.8452 52.1897 33.3101C52.1897 33.775 51.8128 34.1519 51.3479 34.1519Z" fill="black"/>
<path d="M51.3479 30.5443H38.1201C37.6552 30.5443 37.2783 30.1674 37.2783 29.7025C37.2783 29.2376 37.6552 28.8607 38.1201 28.8607H51.3479C51.8128 28.8607 52.1897 29.2376 52.1897 29.7025C52.1897 30.1674 51.8128 30.5443 51.3479 30.5443Z" fill="black"/>
<path d="M26.0947 35.3544H20.082C19.6171 35.3544 19.2402 34.9775 19.2402 34.5126V8.05695C19.2402 7.59205 19.6171 7.21518 20.082 7.21518H26.0947C26.5596 7.21518 26.9364 7.59205 26.9364 8.05695V34.5126C26.9364 34.9775 26.5596 35.3544 26.0947 35.3544ZM20.9238 33.6709H25.2529V8.89872H20.9238V33.6709Z" fill="black"/>
<path d="M33.3098 12.5063H20.082C19.6171 12.5063 19.2402 12.1295 19.2402 11.6646C19.2402 11.1997 19.6171 10.8228 20.082 10.8228H33.3098C33.7747 10.8228 34.1516 11.1997 34.1516 11.6646C34.1516 12.1295 33.7747 12.5063 33.3098 12.5063Z" fill="black"/>
<path d="M33.3098 16.1139H20.082C19.6171 16.1139 19.2402 15.7371 19.2402 15.2722C19.2402 14.8073 19.6171 14.4304 20.082 14.4304H33.3098C33.7747 14.4304 34.1516 14.8073 34.1516 15.2722C34.1516 15.7371 33.7747 16.1139 33.3098 16.1139Z" fill="black"/>
<path d="M33.3098 19.7215H20.082C19.6171 19.7215 19.2402 19.3446 19.2402 18.8797C19.2402 18.4148 19.6171 18.038 20.082 18.038H33.3098C33.7747 18.038 34.1516 18.4148 34.1516 18.8797C34.1516 19.3446 33.7747 19.7215 33.3098 19.7215Z" fill="black"/>
<path d="M33.3098 23.3291H20.082C19.6171 23.3291 19.2402 22.9522 19.2402 22.4873C19.2402 22.0224 19.6171 21.6455 20.082 21.6455H33.3098C33.7747 21.6455 34.1516 22.0224 34.1516 22.4873C34.1516 22.9522 33.7747 23.3291 33.3098 23.3291Z" fill="black"/>
<path d="M33.3098 26.9367H20.082C19.6171 26.9367 19.2402 26.5598 19.2402 26.0949C19.2402 25.63 19.6171 25.2531 20.082 25.2531H33.3098C33.7747 25.2531 34.1516 25.63 34.1516 26.0949C34.1516 26.5598 33.7747 26.9367 33.3098 26.9367Z" fill="black"/>
<path d="M33.3098 30.5443H20.082C19.6171 30.5443 19.2402 30.1674 19.2402 29.7025C19.2402 29.2376 19.6171 28.8607 20.082 28.8607H33.3098C33.7747 28.8607 34.1516 29.2376 34.1516 29.7025C34.1516 30.1674 33.7747 30.5443 33.3098 30.5443Z" fill="black"/>
<path d="M56.1586 57H50.146C49.6811 57 49.3042 56.6231 49.3042 56.1582V46.1772H33.3105C32.8456 46.1772 32.4688 45.8003 32.4688 45.3354V8.05695C32.4688 7.59205 32.8456 7.21518 33.3105 7.21518H56.1586C56.6235 7.21518 57.0004 7.59205 57.0004 8.05695V56.1582C57.0004 56.6231 56.6235 57 56.1586 57ZM50.9877 55.3164H55.3168V8.89872H34.1523V44.4936H50.146C50.6109 44.4936 50.9877 44.8705 50.9877 45.3354V55.3164Z" fill="black"/>
<path d="M50.1449 49.7848H21.2842C20.8193 49.7848 20.4424 49.4079 20.4424 48.943C20.4424 48.4781 20.8193 48.1013 21.2842 48.1013H50.1449C50.6098 48.1013 50.9867 48.4781 50.9867 48.943C50.9867 49.4079 50.6098 49.7848 50.1449 49.7848Z" fill="black"/>
<path d="M50.1449 53.3924H21.2842C20.8193 53.3924 20.4424 53.0155 20.4424 52.5506C20.4424 52.0857 20.8193 51.7089 21.2842 51.7089H50.1449C50.6098 51.7089 50.9867 52.0857 50.9867 52.5506C50.9867 53.0155 50.6098 53.3924 50.1449 53.3924Z" fill="black"/>
<path d="M5.65134 57C5.18644 57 4.80957 56.6231 4.80957 56.1582V42.9304C4.80957 42.6654 4.93439 42.4159 5.14628 42.2569L9.9564 38.6493C10.3282 38.3704 10.8559 38.4456 11.1349 38.8176C11.4138 39.1895 11.3385 39.7171 10.9665 39.9961L6.49311 43.3512V56.1582C6.49311 56.6231 6.11624 57 5.65134 57Z" fill="black"/>
<path d="M5.65132 47.3797C5.47563 47.3797 5.29826 47.325 5.14686 47.2114L0.336735 43.6038C-0.0352081 43.3249 -0.110487 42.7972 0.16838 42.4253C0.447247 42.0534 0.974918 41.9776 1.34686 42.2571L6.15698 45.8647C6.52893 46.1435 6.60421 46.6712 6.32534 47.0431C6.15999 47.2634 5.90722 47.3797 5.65132 47.3797Z" fill="black"/>
<path d="M5.65189 43.7724C5.29943 43.7724 4.97101 43.5493 4.85341 43.1966L3.65088 39.589C3.50381 39.1479 3.74215 38.6712 4.18324 38.5243C4.6242 38.3772 5.10101 38.6157 5.24796 39.0566L6.45049 42.6642C6.59756 43.1053 6.35922 43.582 5.91813 43.729C5.82986 43.7584 5.74015 43.7724 5.65189 43.7724Z" fill="black"/>
<path d="M5.65077 50.9873C5.47508 50.9873 5.2977 50.9326 5.1463 50.8189C4.77436 50.5401 4.69908 50.0124 4.97795 49.6404L8.58554 44.8303C8.86441 44.4584 9.39208 44.3826 9.76402 44.6621C10.136 44.941 10.2112 45.4686 9.93238 45.8406L6.32479 50.6507C6.15944 50.871 5.90667 50.9873 5.65077 50.9873Z" fill="black"/>
<path d="M13.4689 14.9114H7.45629C6.07855 14.9114 4.94348 13.8529 4.82154 12.5063H3.84869C2.3899 12.5063 1.20312 11.3195 1.20312 9.86075C1.20312 8.40196 2.3899 7.21518 3.84869 7.21518H7.45629C8.83403 7.21518 9.9691 8.27365 10.091 9.62024H13.4689C14.9277 9.62024 16.1145 10.807 16.1145 12.2658C16.1145 13.7246 14.9277 14.9114 13.4689 14.9114ZM3.84869 8.89872C3.31826 8.89872 2.88667 9.33031 2.88667 9.86075C2.88667 10.3912 3.31826 10.8228 3.84869 10.8228H5.75735C6.03069 10.8228 6.28694 10.9555 6.44472 11.1786C6.60249 11.4018 6.64205 11.6876 6.5509 11.9453C6.51326 12.0515 6.49426 12.1593 6.49426 12.2658C6.49426 12.7962 6.92585 13.2278 7.45629 13.2278H13.4689C13.9994 13.2278 14.431 12.7962 14.431 12.2658C14.431 11.7354 13.9994 11.3038 13.4689 11.3038H9.15522C8.88189 11.3038 8.62563 11.171 8.46786 10.948C8.31008 10.7248 8.27052 10.4389 8.36167 10.1812C8.39931 10.075 8.41831 9.96729 8.41831 9.86075C8.41831 9.33031 7.98672 8.89872 7.45629 8.89872H3.84869Z" fill="black"/>
<path d="M46.5381 26.9367C46.0732 26.9367 45.6963 26.5598 45.6963 26.0949V12.8671C45.6963 12.4022 46.0732 12.0253 46.5381 12.0253C47.003 12.0253 47.3798 12.4022 47.3798 12.8671V26.0949C47.3798 26.5598 47.003 26.9367 46.5381 26.9367Z" fill="black"/>
<path d="M42.9297 26.9367C42.4648 26.9367 42.0879 26.5598 42.0879 26.0949V12.8671C42.0879 12.4022 42.4648 12.0253 42.9297 12.0253C43.3946 12.0253 43.7714 12.4022 43.7714 12.8671V26.0949C43.7714 26.5598 43.3946 26.9367 42.9297 26.9367Z" fill="black"/>
</svg>
