<svg width="36" height="40" viewBox="0 0 36 40" fill="none" xmlns="http://www.w3.org/2000/svg">
<path d="M0.0473334 30.9009C0.0641867 30.939 0.0847102 30.9754 0.108613 31.0095C0.128993 31.0475 0.153148 31.0833 0.180713 31.1164C0.214468 31.1492 0.251626 31.1782 0.291554 31.203C0.315598 31.225 0.341326 31.245 0.3685 31.263L17.7018 39.9297C17.7077 39.9326 17.7146 39.9313 17.7205 39.9341C17.8965 40.022 18.1035 40.022 18.2795 39.9341C18.2855 39.9313 18.2923 39.9326 18.2982 39.9297L35.6315 31.263C35.6587 31.245 35.6844 31.225 35.7085 31.203C35.7484 31.1782 35.7856 31.1492 35.8193 31.1164C35.8694 31.0483 35.914 30.9762 35.9527 30.9009C35.9674 30.8549 35.977 30.8074 35.9813 30.7592C35.9899 30.7289 35.9961 30.6979 36 30.6667V9.33332C36 9.32624 35.9962 9.32034 35.996 9.31332C35.9925 9.27906 35.9864 9.24513 35.9776 9.21184C35.9726 9.17359 35.9643 9.13586 35.9527 9.09908C35.9471 9.08411 35.9419 9.06987 35.9352 9.05546C35.9322 9.04887 35.933 9.04171 35.9297 9.03516C35.9153 9.01406 35.8995 8.99386 35.8825 8.97469C35.8642 8.94254 35.843 8.91204 35.8193 8.88354C35.8075 8.87072 35.7959 8.85909 35.783 8.84725C35.7547 8.82384 35.7245 8.8029 35.6926 8.78467C35.6733 8.76753 35.6529 8.75161 35.6316 8.73698L18.2982 0.0703126C18.1105 -0.0234375 17.8896 -0.0234375 17.7019 0.0703126L0.36852 8.73698C0.347199 8.75161 0.326802 8.76753 0.307447 8.78467C0.275586 8.8029 0.24535 8.82384 0.217073 8.84725C0.204213 8.85909 0.19262 8.87073 0.18074 8.88354C0.157077 8.91204 0.135933 8.94254 0.117547 8.97469C0.100592 8.99386 0.0848287 9.01406 0.0703467 9.03516C0.0670934 9.04171 0.0679067 9.04887 0.0648534 9.05546C0.0581867 9.06987 0.0530134 9.08413 0.0473534 9.09908C0.0357538 9.13586 0.0274346 9.17359 0.0224933 9.21184C0.0136952 9.24513 0.00751195 9.27906 0.004 9.31332C0.00382667 9.32034 0 9.32624 0 9.33332V30.6667C0.00390001 30.6979 0.0101578 30.7289 0.01872 30.7592C0.0230102 30.8074 0.0326063 30.8549 0.0473334 30.9009ZM7 6.91209L11.1758 8.99998L6.33334 11.4212L2.15755 9.33332L7 6.91209ZM12.6667 4.07875L16.8425 6.16665L12.6667 8.25454L8.49089 6.16665L12.6667 4.07875ZM27.8425 6.33332L24 8.25454L19.8242 6.16665L23.6667 4.24542L27.8425 6.33332ZM33.8425 9.33332L30 11.2545L25.4909 8.99998L29.3334 7.07876L33.8425 9.33332ZM18 35.2546L13.4909 33L18.3333 30.5788L22.8425 32.8333L18 35.2546ZM17.7018 21.9297C17.7077 21.9326 17.7146 21.9313 17.7205 21.9341C17.8965 22.022 18.1035 22.022 18.2795 21.9341C18.2854 21.9313 18.2923 21.9326 18.2982 21.9297L20.6667 20.7454L22.1758 21.5L18.3333 23.4212L14.1576 21.3333L15.3333 20.7454L17.7018 21.9297ZM34.6667 26.2546L22.1576 20L34.6667 13.7454V26.2546ZM12.6667 22.0788L16.8425 24.1667L12.6667 26.2546L8.49089 24.1667L12.6667 22.0788ZM18.3333 24.9121L22.5091 27L18.3333 29.0879L14.1576 27L18.3333 24.9121ZM19.8242 24.1667L23.6667 22.2454L27.8425 24.3333L24 26.2546L19.8242 24.1667ZM1.33333 26.2546V13.7454L13.8425 20L1.33333 26.2546ZM7 24.9121L11.1758 27L6.33334 29.4212L2.15755 27.3333L7 24.9121ZM12.6667 27.7454L16.8425 29.8333L12 32.2546L7.82422 30.1667L12.6667 27.7454ZM24.3333 32.0879L19.8242 29.8333L24 27.7454L28.5091 30L24.3333 32.0879ZM30 29.2546L25.4909 27L29.3334 25.0788L33.8425 27.3333L30 29.2546ZM34.6667 12.2545L18.6667 20.2546V18.4121L34.6667 10.4121V12.2545ZM24.3333 14.0879L19.8242 11.8333L24 9.74542L28.5091 12L24.3333 14.0879ZM22.8425 14.8333L18 17.2545L13.4909 15L18.3333 12.5788L22.8425 14.8333ZM12 14.2545L7.82422 12.1667L12.6667 9.74542L16.8425 11.8333L12 14.2545ZM17.3333 18.4121V20.2546L1.33333 12.2545V10.4121L17.3333 18.4121ZM1.33333 28.4121L17.3333 36.4121V38.2546L1.33333 30.2546V28.4121ZM18.6667 36.4121L34.6667 28.4121V30.2546L18.6667 38.2546V36.4121ZM22.5091 8.99998L18.3333 11.0879L14.1576 8.99998L18.3333 6.91209L22.5091 8.99998ZM18 1.41209L22.1758 3.49998L18.3333 5.42121L14.1576 3.33331L18 1.41209Z" fill="black"/>
</svg>
