<svg width="40" height="40" viewBox="0 0 40 40" fill="none" xmlns="http://www.w3.org/2000/svg">
<path d="M39.5881 0.0514733C39.5074 0.0177598 39.4208 0.000269418 39.3333 0H0.664713C0.578259 8.19337e-05 0.49266 0.0171143 0.41276 0.0501333L0.41028 0.0518C0.248329 0.119554 0.119554 0.248329 0.0518 0.41028L0.0501333 0.41276C0.0171143 0.49266 8.19337e-05 0.578259 0 0.664713V39.3333C0.00146158 39.7009 0.299084 39.9985 0.666667 40H16.6667C17.0343 39.9985 17.3319 39.7009 17.3333 39.3333V17.3333H39.3333C39.7009 17.3319 39.9985 17.0343 40 16.6667V0.666667C39.9989 0.39742 39.8366 0.155025 39.5881 0.0514733ZM16.9427 16L10.276 9.33333H31.0573L37.724 16H16.9427ZM8.66667 32.276L15.0573 38.6667H2.27604L8.66667 32.276ZM9.33333 31.0573V10.276L16 16.9427V37.724L9.33333 31.0573ZM32.276 8.66667L38.6667 2.27604V15.0573L32.276 8.66667ZM16.6667 1.33333H37.724L31.0573 8H8.94271L2.27604 1.33333H16.6667ZM1.33333 2.27604L8 8.94271V31.0573L1.33333 37.724V2.27604Z" fill="black"/>
</svg>
