<svg width="14" height="14" viewBox="0 0 14 14" fill="none" xmlns="http://www.w3.org/2000/svg">
<path d="M7 0C3.1429 0 0 3.14289 0 7C0 10.8571 3.1429 14 7 14C10.8571 14 14 10.8571 14 7C14 3.14289 10.8571 0 7 0ZM7 1.5C10.0464 1.5 12.5 3.95357 12.5 7C12.5 10.0464 10.0464 12.5 7 12.5C3.95357 12.5 1.5 10.0464 1.5 7C1.5 3.95357 3.95355 1.5 7 1.5ZM7 2.5C6.5858 2.5 6.25 2.8358 6.25 3.25V7C6.25 7.27738 6.40115 7.51867 6.625 7.64842L9.4375 9.27342C9.7962 9.48052 10.2538 9.35872 10.4609 9C10.668 8.6413 10.5462 8.18365 10.1875 7.97655L7.75 6.5703V3.25C7.75 2.8358 7.41423 2.5 7 2.5Z" fill="black"/>
</svg>
