<svg width="40" height="40" viewBox="0 0 40 40" fill="none" xmlns="http://www.w3.org/2000/svg">
<path d="M39.9776 25.8785C39.9726 25.8403 39.9643 25.8025 39.9527 25.7657C39.947 25.7508 39.9419 25.7365 39.9352 25.7221C39.9321 25.7155 39.933 25.7084 39.9297 25.7018C39.9152 25.6807 39.8994 25.6604 39.8824 25.6412C39.8641 25.6091 39.8429 25.5787 39.8193 25.5502C39.8075 25.5375 39.7959 25.5258 39.7831 25.514C39.7546 25.4903 39.7241 25.4691 39.6919 25.4507C39.6727 25.4338 39.6526 25.4181 39.6315 25.4036L34 22.5879V7.33333C33.9991 7.26733 33.9884 7.20184 33.9681 7.13904C33.9633 7.12345 33.9561 7.10978 33.9502 7.0946C33.927 7.03468 33.8953 6.97845 33.8559 6.92769C33.8465 6.91548 33.8393 6.9027 33.829 6.89115C33.787 6.84272 33.7381 6.80065 33.6839 6.76627C33.6727 6.75935 33.6601 6.7565 33.6486 6.75031C33.642 6.74673 33.6383 6.74031 33.6315 6.73698L20.2982 0.0703126C20.1104 -0.0234375 19.8896 -0.0234375 19.7018 0.0703126L6.36848 6.73698C6.36177 6.74036 6.35802 6.74675 6.35148 6.75031C6.33996 6.7565 6.32726 6.75939 6.31608 6.76631C6.27894 6.79069 6.24437 6.81876 6.21288 6.8501C6.20613 6.85644 6.19816 6.86076 6.19164 6.86735C6.1842 6.87492 6.17805 6.88326 6.17098 6.89119C6.16068 6.90275 6.15352 6.91553 6.14408 6.92774C6.11374 6.96635 6.0878 7.00824 6.06675 7.05262C6.05951 7.06808 6.05336 7.08305 6.0473 7.09912C6.04214 7.11272 6.0362 7.12516 6.03192 7.13908C6.01164 7.20187 6.00088 7.26735 6 7.33333V22.5879L0.368487 25.4036C0.347674 25.4179 0.327752 25.4335 0.308833 25.4502C0.276225 25.4688 0.245317 25.4903 0.216467 25.5143C0.203853 25.526 0.19242 25.5376 0.1807 25.5502C0.157143 25.5786 0.136082 25.6089 0.117753 25.6409C0.100706 25.6602 0.0848602 25.6806 0.0703067 25.7018C0.0670534 25.7084 0.0678667 25.7155 0.0648134 25.7221C0.0581467 25.7365 0.0529734 25.7508 0.0473134 25.7657C0.0357138 25.8025 0.0273946 25.8403 0.0224533 25.8785C0.0136677 25.9118 0.00749779 25.9457 0.004 25.98C0.00382667 25.987 0 25.9929 0 26V29.6667C0.00390004 29.698 0.0101578 29.7289 0.01872 29.7592C0.0230086 29.8074 0.0326023 29.8549 0.0473267 29.9009C0.06418 29.939 0.0847035 29.9754 0.108607 30.0095C0.128986 30.0475 0.153142 30.0833 0.180707 30.1165C0.214461 30.1492 0.251619 30.1782 0.291547 30.203C0.315592 30.225 0.341319 30.245 0.368493 30.263L19.7018 39.9297C19.7077 39.9326 19.7146 39.9313 19.7205 39.9341C19.8965 40.022 20.1035 40.022 20.2795 39.9341C20.2854 39.9313 20.2923 39.9326 20.2982 39.9297L39.6315 30.263C39.6587 30.245 39.6844 30.225 39.7085 30.203C39.7484 30.1782 39.7855 30.1492 39.8193 30.1165C39.8694 30.0483 39.914 29.9762 39.9527 29.9009C39.9674 29.8549 39.977 29.8074 39.9813 29.7592C39.9898 29.7289 39.9961 29.698 40 29.6667V26C40 25.9929 39.9962 25.987 39.996 25.98C39.9925 25.9457 39.9863 25.9118 39.9776 25.8785ZM1.33333 27.0788L19.3333 36.0788V38.2546L1.33333 29.2546V27.0788ZM20.6667 36.0788L38.6667 27.0788V29.2546L20.6667 38.2546V36.0788ZM32.6667 8.4121V25.5879L30 26.9212V9.74544L32.6667 8.4121ZM20 1.4121L31.8425 7.33333L29.3333 8.58789L20.2982 4.07031C20.2923 4.06738 20.2855 4.06868 20.2795 4.06591C20.1036 3.97802 19.8965 3.97802 19.7205 4.06591C19.7146 4.06868 19.7077 4.06738 19.7019 4.07031L10.6667 8.58789L8.15756 7.33333L20 1.4121ZM20.6667 22.9212V5.74543L28.6667 9.74544V26.9212L20.6667 22.9212ZM11.3333 9.74544L19.3333 5.74543V22.9212L11.3333 26.9212V9.74544ZM7.33334 8.4121L10 9.74544V26.9212L7.33334 25.5879V8.4121ZM6.04667 26.231C6.05424 26.2513 6.0629 26.2697 6.0723 26.289C6.09964 26.3455 6.13492 26.3978 6.17708 26.4444C6.18693 26.4552 6.19405 26.4675 6.20455 26.4777C6.25279 26.5254 6.30808 26.5654 6.36849 26.5963L10.3685 28.5963C10.3805 28.6023 10.3943 28.6001 10.4066 28.6053C10.4712 28.6321 10.5398 28.6482 10.6095 28.6532C10.629 28.6549 10.6471 28.6666 10.6667 28.6666C10.6742 28.6666 10.6816 28.6638 10.6891 28.6635C10.7096 28.6629 10.729 28.6578 10.7494 28.6552C10.8106 28.6474 10.8704 28.6311 10.927 28.6067C10.9394 28.6013 10.9527 28.6025 10.9648 28.5963L20 24.0788L29.0352 28.5964C29.0612 28.6077 29.0879 28.6174 29.1152 28.6252C29.1322 28.6311 29.1484 28.639 29.1657 28.6435C29.2202 28.6582 29.2763 28.666 29.3327 28.6667L29.333 28.6666L29.3333 28.6667L29.3342 28.6665C29.4271 28.6644 29.5185 28.6428 29.6026 28.6032C29.6118 28.5991 29.6224 28.6009 29.6315 28.5964L33.6315 26.5964C33.8574 26.4834 34.0001 26.2525 34 26V24.0788L37.8425 26L20 34.9212L2.15755 26L6 24.0788V26C6.00153 26.0792 6.01734 26.1575 6.04667 26.231Z" fill="black"/>
</svg>
