<svg width="17" height="14" viewBox="0 0 17 14" fill="none" xmlns="http://www.w3.org/2000/svg">
<path d="M11.096 0.23839C11.3127 0.303406 11.5294 0.368421 11.7461 0.455108C11.9628 0.541796 12.1796 0.628483 12.3746 0.736842C12.5697 0.823529 12.7864 0.931889 12.9598 1.06192C13.1765 1.19195 13.3498 1.32198 13.5449 1.45201C13.7183 1.58204 13.8916 1.73375 14.065 1.90712C14.2384 2.05882 14.3901 2.21053 14.5418 2.3839C14.6935 2.55728 14.8235 2.75232 14.9752 2.9257C15.1053 3.12074 15.2353 3.31579 15.3437 3.51084C15.452 3.70588 15.5604 3.90093 15.6471 4.11765C15.7554 4.33437 15.8421 4.55108 15.9071 4.7678C15.9721 4.98452 16.0372 5.20124 16.1022 5.41796C16.1455 5.65635 16.1889 5.87306 16.2105 6.08978C16.2539 6.32817 16.2755 6.56656 16.2755 6.78328C16.2755 7.02167 16.2755 7.23839 16.2539 7.45511C16.2539 7.6935 16.2105 7.91022 16.1889 8.14861C16.1455 8.387 16.1022 8.60371 16.0372 8.82043C15.9721 9.03715 15.9071 9.25387 15.8204 9.47059C15.7554 9.68731 15.6471 9.90402 15.5604 10.0991C15.452 10.2941 15.3437 10.5108 15.2136 10.7059C15.1053 10.9009 14.9752 11.0743 14.8235 11.2693C14.6935 11.4427 14.5418 11.6161 14.3901 11.7895C14.2384 11.9628 14.065 12.1146 13.8916 12.2663C13.7183 12.418 13.5449 12.5697 13.3498 12.6997C13.1548 12.8297 12.9598 12.9598 12.7864 13.0681L12.678 13.1331C12.5046 13.2198 12.3313 13.3065 12.1579 13.3932C11.9412 13.4799 11.7245 13.5666 11.5294 13.6316C11.3127 13.7183 11.096 13.7616 10.8576 13.8266C10.6409 13.87 10.4241 13.9133 10.1858 13.9567H10.1424H10.1207C9.9257 13.9783 9.70898 14 9.49226 14C9.27554 14 9.03715 14 8.82043 14C8.60371 13.9783 8.36532 13.9567 8.12694 13.9133C7.91022 13.87 7.67183 13.8266 7.45511 13.7616C7.32508 13.7399 7.19505 13.6966 7.04334 13.6316C6.91331 13.5882 6.76161 13.5449 6.63158 13.4799C6.47988 13.4365 6.34984 13.3715 6.21981 13.3065C6.08978 13.2415 5.95975 13.1765 5.82972 13.0898C5.69969 13.0248 5.59133 12.9598 5.50464 12.8947C5.39628 12.8297 5.3096 12.7864 5.22291 12.7214L5.17957 12.678C5.09288 12.613 4.98452 12.548 4.89783 12.4613C4.83282 12.418 4.7678 12.3746 4.70279 12.3096L1.32198 12.4613H1.06192L0.71517 12.483H0.47678L0 12.5046L0.23839 12.0929L0.346749 11.8762L0.498452 11.6161L0.520124 11.5944L0.650155 11.356L2.40557 8.32198C2.3839 8.23529 2.36223 8.14861 2.36223 8.08359L2.34056 7.91022L2.31889 7.80186V7.73684C2.29721 7.60681 2.29721 7.47678 2.27554 7.36842L2.29721 7.34675C2.27554 7.23839 2.27554 7.10836 2.27554 6.97833C2.27554 6.82663 2.27554 6.67492 2.29721 6.52322C2.29721 6.39319 2.31889 6.24149 2.34056 6.08978C2.36223 5.93808 2.3839 5.78638 2.40557 5.63467C2.44892 5.48297 2.47059 5.33127 2.51393 5.20124C2.57895 4.98452 2.64396 4.7678 2.73065 4.55108C2.81734 4.31269 2.90402 4.11765 2.99071 3.9226C3.09907 3.70588 3.20743 3.51084 3.33746 3.31579C3.44582 3.12074 3.57585 2.9257 3.72755 2.75232C3.85758 2.55728 4.00929 2.3839 4.16099 2.2322C4.33437 2.05882 4.48607 1.90712 4.65944 1.75542C4.83282 1.60372 5.00619 1.45201 5.20124 1.32198C5.39628 1.17028 5.59133 1.06192 5.78638 0.95356C5.98142 0.823529 6.17647 0.736842 6.39319 0.628483C6.58823 0.541796 6.80495 0.455108 7.02167 0.390093C7.23839 0.303406 7.45511 0.23839 7.6935 0.195046C7.91022 0.130031 8.14861 0.0866873 8.36532 0.0650155C8.58204 0.0433437 8.82043 0.0216718 9.05882 0.0216718V0C9.27554 0 9.51393 0 9.73065 0.0216718C9.96904 0.0433437 10.1858 0.0650155 10.4241 0.108359C10.6409 0.130031 10.8793 0.195046 11.096 0.23839ZM4.74613 10.8359H5.00619H5.09288H5.13622L5.24458 10.8142L5.33127 10.9009L5.37461 10.9443L5.43963 10.9876C5.52632 11.0743 5.613 11.161 5.69969 11.226C5.78638 11.3127 5.87306 11.3777 5.95975 11.4427C6.04644 11.5077 6.1548 11.5728 6.26316 11.6378C6.34984 11.7245 6.4582 11.7678 6.54489 11.8328C6.65325 11.8762 6.76161 11.9412 6.86997 11.9845C6.93498 12.0279 7.02167 12.0712 7.08669 12.0929H7.10836L7.17337 12.1362C7.28173 12.1796 7.41176 12.2229 7.49845 12.2446C7.60681 12.2879 7.71517 12.3096 7.8452 12.3529C8.01858 12.3963 8.21362 12.4396 8.387 12.4613C8.56037 12.5046 8.73375 12.5263 8.92879 12.5263C9.10217 12.548 9.27554 12.548 9.47059 12.548C9.64396 12.5263 9.81734 12.5263 9.99071 12.5046C10.1858 12.483 10.3591 12.4396 10.5325 12.3963C10.7059 12.3529 10.8793 12.3096 11.0526 12.2446C11.226 12.2012 11.3994 12.1362 11.5511 12.0495C11.7245 11.9845 11.8762 11.8978 12.0495 11.8111C12.2012 11.7028 12.3529 11.6161 12.5046 11.5077C12.6563 11.3994 12.7864 11.291 12.9381 11.161C13.0681 11.0526 13.1981 10.9226 13.3282 10.7926C13.4365 10.6625 13.5666 10.5325 13.6749 10.3808C13.7833 10.2291 13.8916 10.0774 13.9783 9.9257C14.065 9.77399 14.1517 9.62229 14.2384 9.44892C14.3251 9.29721 14.3901 9.12384 14.4551 8.95046C14.5201 8.79876 14.5635 8.62539 14.6285 8.43034C14.6718 8.25697 14.7152 8.08359 14.7368 7.91022C14.7585 7.73684 14.7802 7.5418 14.8019 7.36842C14.8235 7.19505 14.8235 7 14.8019 6.82663C14.8019 6.65325 14.8019 6.50155 14.7802 6.32817L14.7585 6.28483C14.7368 6.11145 14.7152 5.93808 14.6718 5.74303C14.6285 5.56966 14.5851 5.39628 14.5201 5.22291C14.4551 5.04954 14.3901 4.89783 14.3251 4.72446C14.2601 4.57276 14.1734 4.39938 14.065 4.24768C13.8916 3.9226 13.6749 3.61919 13.4365 3.35913C13.2198 3.09907 12.9598 2.86068 12.6997 2.64396L12.6563 2.62229C12.5046 2.51393 12.3529 2.40557 12.2012 2.29721C12.0495 2.21053 11.8978 2.12384 11.7245 2.03715C11.5728 1.97214 11.3994 1.88545 11.226 1.82043C11.0743 1.77709 10.9009 1.71207 10.7059 1.66873C10.5325 1.60372 10.3375 1.58204 10.1858 1.5387C9.99071 1.51703 9.81734 1.49536 9.64396 1.47368C9.44892 1.47368 9.27554 1.47368 9.10217 1.47368C8.90712 1.47368 8.73375 1.49536 8.56037 1.51703C8.36532 1.5387 8.19195 1.58204 8.01858 1.60372C7.8452 1.64706 7.67183 1.71207 7.49845 1.75542C7.32508 1.82043 7.1517 1.88545 7 1.97214C6.82663 2.03715 6.67492 2.12384 6.50155 2.21053C6.34984 2.29721 6.19814 2.40557 6.04644 2.51393C5.89474 2.62229 5.76471 2.73065 5.613 2.83901C5.48297 2.96904 5.35294 3.09907 5.24458 3.2291C5.11455 3.35913 4.98452 3.48916 4.87616 3.64087L4.83282 3.70588C4.74613 3.81424 4.65944 3.94427 4.57276 4.0743C4.48607 4.22601 4.39938 4.39938 4.31269 4.55108C4.22601 4.72446 4.16099 4.89783 4.09597 5.04954C4.03096 5.22291 3.98762 5.39628 3.9226 5.56966C3.90093 5.69969 3.87926 5.80805 3.85758 5.91641C3.83591 6.02477 3.81424 6.13313 3.79257 6.26316C3.7709 6.39319 3.7709 6.50155 3.74923 6.60991C3.74923 6.71827 3.74923 6.8483 3.74923 6.95666C3.72755 7.06502 3.74923 7.19505 3.74923 7.30341C3.74923 7.41176 3.7709 7.5418 3.7709 7.65015C3.79257 7.75851 3.81424 7.86687 3.83591 7.9969C3.85758 8.10526 3.87926 8.21362 3.90093 8.32198L3.9226 8.387V8.40867V8.45201L3.94427 8.56037L3.90093 8.64706L3.87926 8.6904L3.85758 8.73375L3.83591 8.75542L3.64087 9.12384L3.46749 9.40557L3.2291 9.83901L2.57895 10.9443L4.6161 10.8576L4.72446 10.8359H4.74613Z" fill="black"/>
<path fill-rule="evenodd" clip-rule="evenodd" d="M7.08693 2.75231C5.91665 3.25077 5.54823 4.31269 5.76494 5.50464C5.89498 6.21981 6.15504 6.93498 6.61015 7.80185C7.06525 8.66872 7.65039 9.49225 8.27888 10.1424C9.96928 11.8762 12.6999 11.5727 11.7897 10.0557C11.3346 9.34055 11.0745 8.75541 11.0745 8.75541C11.0745 8.75541 10.8795 8.34365 10.4894 8.58204C10.0776 8.8421 9.68755 9.12383 9.4925 9.08049C9.18909 9.03714 6.80519 5.98142 7.71541 5.50464C8.12717 5.30959 8.84234 5.0712 8.53894 4.57275C8.32222 4.20433 7.54203 2.88235 7.54203 2.88235C7.54203 2.88235 7.39033 2.60061 7.08693 2.75231Z" fill="black"/>
</svg>
