<svg width="40" height="40" viewBox="0 0 40 40" fill="none" xmlns="http://www.w3.org/2000/svg">
<path d="M39.3333 33.3333H37.3333V0.666667C37.3333 0.266667 37.0667 0 36.6667 0H3.33333C2.93333 0 2.66667 0.266667 2.66667 0.666667V33.3333H0.666667C0.266667 33.3333 0 33.6 0 34V36.6667C0 37.0667 0.266667 37.3333 0.666667 37.3333H2.66667V39.3333C2.66667 39.7333 2.93333 40 3.33333 40H6C6.4 40 6.66667 39.7333 6.66667 39.3333V37.3333H33.3333V39.3333C33.3333 39.7333 33.6 40 34 40H36.6667C37.0667 40 37.3333 39.7333 37.3333 39.3333V37.3333H39.3333C39.7333 37.3333 40 37.0667 40 36.6667V34C40 33.6 39.7333 33.3333 39.3333 33.3333ZM4 1.33333H36V33.3333H34.6667V20V3.33333C34.6667 2.93333 34.4 2.66667 34 2.66667H20H6C5.6 2.66667 5.33333 2.93333 5.33333 3.33333V20V33.3333H4V1.33333ZM20.6667 33.3333V20.6667H33.3333V33.3333H20.6667ZM6.66667 33.3333V20.6667H19.3333V33.3333H6.66667ZM33.3333 4V19.3333H20.6667V4H33.3333ZM19.3333 19.3333H6.66667V4H19.3333V19.3333ZM5.33333 38.6667H4V37.3333H5.33333V38.6667ZM36 38.6667H34.6667V37.3333H36V38.6667ZM38.6667 36H36.6667H34H6H3.33333H1.33333V34.6667H3.33333H6H20H34H36.6667H38.6667V36Z" fill="black"/>
<path d="M10.5358 12.8001C10.6691 12.8001 10.9358 12.8001 10.9358 12.6668L15.3358 8.26676C15.6025 8.00009 15.6025 7.60009 15.3358 7.33342C15.0691 7.06676 14.6691 7.06676 14.4025 7.33342L10.0025 11.7334C9.86914 11.8668 9.86914 12.0001 9.86914 12.1334C9.86914 12.5334 10.1358 12.8001 10.5358 12.8001Z" fill="black"/>
<path d="M11.1992 16.1334C11.1992 16.5334 11.4659 16.8001 11.8659 16.8001C11.9992 16.8001 12.2659 16.8001 12.3992 16.6668L16.7992 12.2668C17.0659 12.0001 17.0659 11.6001 16.7992 11.3334C16.5326 11.0668 16.1326 11.0668 15.8659 11.3334L11.4659 15.7334C11.1992 15.8668 11.1992 16.0001 11.1992 16.1334Z" fill="black"/>
<path d="M28.6659 22C28.3992 21.7334 27.9992 21.7334 27.7326 22L23.3326 26.4C23.1992 26.5334 23.1992 26.6667 23.1992 26.8C23.1992 27.2 23.4659 27.4667 23.8659 27.4667C23.9992 27.4667 24.2659 27.4667 24.3992 27.3334L28.7992 22.9334C28.9326 22.6667 28.9326 22.2667 28.6659 22Z" fill="black"/>
<path d="M29.0665 25.9999L24.6665 30.3999C24.5332 30.5333 24.5332 30.6666 24.5332 30.7999C24.5332 31.1999 24.7999 31.4666 25.1999 31.4666C25.3332 31.4666 25.5999 31.4666 25.7332 31.3333L30.1332 26.9333C30.3999 26.6666 30.3999 26.2666 30.1332 25.9999C29.7332 25.7333 29.3332 25.7333 29.0665 25.9999Z" fill="black"/>
</svg>
