<svg width="34" height="40" viewBox="0 0 34 40" fill="none" xmlns="http://www.w3.org/2000/svg">
<path d="M32 22V12L34 8L32 0H24L22 8L24 12V22C22.8944 22 22 22.8944 22 24V38C22 39.1056 22.8944 40 24 40H32C33.1056 40 34 39.1056 34 38V24C34 22.8944 33.1056 22 32 22ZM25.5624 2H30.4376L31.8808 7.7696L30 11.5272V22H26V11.5272L24.1192 7.7692L25.5624 2ZM32 38H24V24H32V38ZM26 34C26 32.8944 26.8944 32 28 32C29.1056 32 30 32.8944 30 34C30 35.1056 29.1056 36 28 36C26.8944 36 26 35.1056 26 34ZM14 0.8436V10L10 12L6 10V0.8436C2.4716 2.3908 0 5.9024 0 10C0 13.2616 1.5848 16.1288 4 17.9572V38C4 39.1056 4.8956 40 6 40H14C15.1044 40 16 39.1056 16 38V17.9572C18.4148 16.1292 20 13.262 20 10C20 5.9024 17.528 2.3908 14 0.8436ZM14 16.9608V38H6V16.9608C6 16.9608 2 14.6868 2 10C2 8.0196 2.7364 6.1524 4 4.7188V11.2384L10 14.2384L16 11.2384V4.7188C17.2636 6.1524 18 8.0196 18 10C18 14.764 14 16.9608 14 16.9608ZM12 34C12 35.1056 11.1044 36 10 36C8.8956 36 8 35.1056 8 34C8 32.8944 8.8956 32 10 32C11.1044 32 12 32.8944 12 34Z" fill="black"/>
</svg>
